<svg width="52" height="52" viewBox="0 0 52 52" fill="none" xmlns="http://www.w3.org/2000/svg">
<path d="M6.5 30.3335C8.29833 31.7245 11.0002 32.537 14.0833 32.5001C17.1665 32.537 19.8683 31.7245 21.6667 30.3335C23.465 28.9425 26.1668 28.13 29.25 28.1668C32.3332 28.13 35.035 28.9425 36.8333 30.3335M17.3334 6.5C16.6477 6.9922 16.0921 7.64394 15.7146 8.39892C15.3371 9.1539 15.1491 9.98943 15.1667 10.8333C15.1491 11.6772 15.3371 12.5128 15.7146 13.2677C16.0921 14.0227 16.6477 14.6745 17.3334 15.1667M26.0001 6.5C25.3144 6.9922 24.7587 7.64394 24.3813 8.39892C24.0038 9.1539 23.8157 9.98943 23.8334 10.8333C23.8157 11.6772 24.0038 12.5128 24.3813 13.2677C24.7587 14.0227 25.3144 14.6745 26.0001 15.1667M36.2832 36.2396C37.2508 36.6838 38.3128 36.8835 39.3757 36.8211C40.4385 36.7588 41.4698 36.4363 42.3789 35.882C43.288 35.3277 44.0469 34.5586 44.5891 33.6423C45.1313 32.726 45.4401 31.6905 45.4884 30.6268C45.5366 29.5632 45.3228 28.504 44.8659 27.5424C44.4089 26.5807 43.7226 25.746 42.8675 25.1117C42.0124 24.4774 41.0145 24.0629 39.9616 23.9045C38.9087 23.7462 37.8331 23.849 36.8292 24.2037M6.5 21.6667H36.8333V32.5C36.8333 35.9478 35.4637 39.2544 33.0257 41.6924C30.5877 44.1304 27.2811 45.5 23.8333 45.5H19.5C16.0522 45.5 12.7456 44.1304 10.3076 41.6924C7.86964 39.2544 6.5 35.9478 6.5 32.5V21.6667Z" stroke="white" stroke-linecap="round" stroke-linejoin="round"></path>
</svg>
